<?xml version="1.0" encoding="UTF-8"?><svg id="icon-0" xmlns="http://www.w3.org/2000/svg" viewBox="0 0 404 91"><defs><style>.cls-1{fill:#ff9800;}</style></defs><g id="tight-bounds"><g id="g77"><g id="g62"><g id="g58"><g id="g54"><g id="g50"><path id="text-0" class="cls-1" d="M6.15,47.42h0l5-2.44,8.57,.78-.43,4.71-8.07-.73-.45,4.91,8.07,.73-.43,4.74-8.07-.73-.87,9.57-5.24-.47,1.91-21.06Zm28.66,2.6h0l-4.65-3.31-8.57-.78-.43,4.7,8.24,.75-.45,4.91-8.24-.75-.43,4.74,8.24,.75-.87,9.57,5.24,.48,1.91-21.06Zm7.51-2.34h0l4.75,.35,7.99,8.71-.46,6.29-7.53-8.21-1.27,17.2-5.25-.39,1.76-23.96Zm28.71,2.11h0l-4.71-.35-9.22,7.45-.46,6.29,8.65-7.02-1.26,17.2,5.25,.39,1.76-23.96Zm7.08,3.28h0l5.04-2.6,8.64,.48-.26,4.72-8.26-.46-.8,14.39,8.09,.45-.27,4.88-8.47-.47-4.72-3.1,1.02-18.28Zm28.74,1.6h0l-4.56-3.14-8.63-.48-.26,4.72,8.09,.45-.8,14.39-8.09-.45-.27,4.88,8.63,.48,4.87-2.57,1.02-18.28Zm6.48,.25h0l4.99-2.69,8.64,.33-.18,4.72-8.27-.32-.56,14.4,8.1,.31-.19,4.88-8.47-.33-4.77-3.02,.71-18.29Zm28.76,1.11h0l-4.61-3.06-8.64-.33-.18,4.72,8.1,.31-.56,14.4-8.1-.31-.19,4.88,8.64,.33,4.83-2.65,.71-18.29Zm6.86,21.29l.52-24.02,4.77,.1,8.43,8.29-.14,6.31-7.94-7.98-.37,17.42-5.26-.11Zm15.56-14.04l8.11,7.78,.37-17.26,5.26,.11-.52,24.02-4.93-.11-8.43-8.46,.13-6.09Zm34.82-9.29l13.86,.05-13.91,14.83,.02-7.23,2.39-2.92h-2.37s.02-4.73,.02-4.73Zm-2.13,24.02l-13.87-.05,13.92-14.83-.02,7.11-2.35,2.87h2.34s-.02,4.9-.02,4.9Zm-13.12-24.07l13.2,.05-.02,4.72-13.2-.05,.02-4.72Zm15.19,19.19l13.32,.05-.02,4.89-13.32-.05,.02-4.89Zm17.51-16.26h0l4.85-2.94,8.65-.1,.05,4.72-8.27,.09,.16,14.41,8.1-.09,.06,4.89-8.48,.1-4.92-2.78-.21-18.3Zm28.78-.33h0l-4.76-2.83-8.64,.1,.05,4.72,8.1-.09,.17,14.41-8.1,.09,.06,4.89,8.64-.1,4.69-2.89-.21-18.3Zm7.91,20.92l-.68-24.01,4.77-.14,8.84,7.85,.18,6.31-8.33-7.58,.5,17.41-5.26,.15Zm14.84-14.8l8.49,7.37-.49-17.25,5.26-.15,.68,24.01-4.93,.14-8.84-8.02-.17-6.09Zm18.13,13.78l-.23-5.76,5.76-.23,.22,5.76-5.76,.22Zm12.4-3.38l-.93-18.28,4.73-3.12,8.64-.44,.24,4.72-8.1,.41,.73,14.39,7.93-.4,.25,4.88-8.47,.43-5.02-2.59Zm28.67-6.39l-5.43,.28,.15,2.88-7.93,.4,.25,4.88,8.47-.43,4.75-3.08-.25-4.92Zm-5.87-8.32l5.43-.28-.24-4.76-5.04-2.63-8.63,.44,.24,4.72,8.09-.41,.15,2.92Zm11.65-5.48h0l4.68-3.2,8.63-.59,.32,4.71-8.25,.56,.98,14.38,8.08-.55,.33,4.88-8.46,.57-5.07-2.5-1.24-18.26Zm28.72-1.95h0l-4.91-2.55-8.62,.58,.32,4.71,8.08-.55,.98,14.38-8.08,.55,.33,4.88,8.62-.58,4.52-3.15-1.24-18.26Zm7.04-3.49h0l4.75-.4,9.26,7.34,.53,6.29-8.73-6.92,1.46,17.19-5.24,.45-2.03-23.94Zm28.69-2.44h0l-4.71,.4-7.93,8.81,.53,6.29,7.43-8.3,1.46,17.19,5.25-.44-2.03-23.94Z"/></g></g></g></g><g id="g71"><g id="g67"><path id="path64" class="cls-1" d="M207.41,36.4c-4.53,0-8.53-2.28-10.91-5.75l4.23-3.51-6.21-.99c-.22-.96-.34-1.96-.34-2.98,0-6.44,4.6-11.79,10.68-12.98-.84-.13-1.68-.26-2.55-.26-9.13,0-16.54,7.41-16.54,16.54s7.4,16.54,16.54,16.54c7.64,0,14.01-5.21,15.91-12.26-2.39,3.4-6.34,5.64-10.81,5.64Zm-15.49-9.26c-.43,0-.79-.35-.79-.79s.35-.79,.79-.79,.79,.35,.79,.79-.35,.79-.79,.79Z"/></g></g></g></g></svg>