<?xml version="1.0" encoding="UTF-8"?><svg xmlns="http://www.w3.org/2000/svg" xmlns:xlink="http://www.w3.org/1999/xlink" viewBox="0 0 1715.5 750.54"><defs><style>.cls-1{fill:url(#linear-gradient-2);}.cls-2{fill:url(#linear-gradient-17);}.cls-3{fill:url(#linear-gradient-43);}.cls-4{fill:url(#linear-gradient-15);}.cls-5{fill:url(#linear-gradient-18);}.cls-6{fill:url(#linear-gradient-40);}.cls-7{fill:url(#linear-gradient-28);}.cls-8{fill:url(#linear-gradient-14);}.cls-9{fill:url(#linear-gradient-36);}.cls-10{fill:url(#linear-gradient-20);}.cls-11{fill:url(#linear-gradient-6);}.cls-12{fill:#3e3e3e;}.cls-13{fill:url(#linear-gradient-35);}.cls-14{fill:url(#linear-gradient-48);}.cls-15{fill:url(#linear-gradient-32);}.cls-16{fill:#656565;}.cls-17{fill:url(#linear-gradient-11);}.cls-18{fill:url(#linear-gradient-39);}.cls-19{fill:url(#linear-gradient-10);}.cls-20{fill:url(#linear-gradient-49);}.cls-21{fill:url(#linear-gradient-37);}.cls-22{fill:url(#linear-gradient-16);}.cls-23{fill:url(#linear-gradient-31);}.cls-24{fill:url(#linear-gradient-41);}.cls-25{fill:#fbfbfb;}.cls-26{fill:url(#linear-gradient-21);}.cls-27{fill:url(#linear-gradient-25);}.cls-28{fill:url(#linear-gradient-5);}.cls-29{fill:url(#linear-gradient-45);}.cls-30{clip-path:url(#clippath);}.cls-31{fill:url(#linear-gradient-34);}.cls-32{fill:none;}.cls-33{fill:#535353;}.cls-34{fill:url(#linear-gradient-7);}.cls-35{fill:#b1b1b1;}.cls-36{fill:url(#linear-gradient-24);}.cls-37{fill:url(#linear-gradient-9);}.cls-38{fill:url(#linear-gradient-22);}.cls-39{fill:url(#linear-gradient-42);}.cls-40{fill:#f1f1f1;}.cls-41{fill:url(#linear-gradient-3);}.cls-42{fill:url(#linear-gradient);}.cls-43{fill:url(#linear-gradient-27);}.cls-44{fill:url(#linear-gradient-33);}.cls-45{fill:url(#linear-gradient-38);}.cls-46{fill:url(#linear-gradient-29);}.cls-47{fill:url(#linear-gradient-30);}.cls-48{fill:url(#linear-gradient-23);}.cls-49{fill:url(#linear-gradient-19);}.cls-50{fill:url(#linear-gradient-4);}.cls-51{fill:url(#linear-gradient-8);}.cls-52{fill:url(#linear-gradient-44);}.cls-53{fill:url(#linear-gradient-47);}.cls-54{fill:url(#linear-gradient-46);}.cls-55{fill:url(#linear-gradient-12);}.cls-56{fill:url(#linear-gradient-13);}.cls-57{fill:url(#linear-gradient-26);}</style><linearGradient id="linear-gradient" x1="840" y1="496" x2="840" y2="299.96" gradientUnits="userSpaceOnUse"><stop offset="0" stop-color="#043772"/><stop offset="1" stop-color="#000007"/></linearGradient><clipPath id="clippath"><rect class="cls-32" x="90" width="1500" height="750"/></clipPath><linearGradient id="linear-gradient-2" x1="832.61" y1="573" x2="832.61" y2="94.93" gradientUnits="userSpaceOnUse"><stop offset="0" stop-color="#b1b1b1"/><stop offset="1" stop-color="#eee"/></linearGradient><linearGradient id="linear-gradient-3" x1="840" y1="424.54" x2="840" y2="360.04" gradientUnits="userSpaceOnUse"><stop offset="0" stop-color="#535353"/><stop offset="1" stop-color="#b1b1b1"/></linearGradient><linearGradient id="linear-gradient-4" x1="840" y1="927.39" x2="840" y2="131.63" gradientUnits="userSpaceOnUse"><stop offset="0" stop-color="#b1b1b1"/><stop offset="1" stop-color="#f1f1f1"/></linearGradient><linearGradient id="linear-gradient-5" x1="696.01" y1="454.3" x2="700.51" y2="618.3" gradientUnits="userSpaceOnUse"><stop offset="0" stop-color="#b1b1b1"/><stop offset="1" stop-color="#f1f1f1"/></linearGradient><linearGradient id="linear-gradient-6" x1="478.18" y1="644.89" x2="481.52" y2="494.88" gradientUnits="userSpaceOnUse"><stop offset="0" stop-color="#b1b1b1"/><stop offset="1" stop-color="#f1f1f1"/></linearGradient><linearGradient id="linear-gradient-7" x1="1012.29" y1="517.7" x2="1012.29" y2="477.49" gradientUnits="userSpaceOnUse"><stop offset="0" stop-color="#b1b1b1"/><stop offset="1" stop-color="#f1f1f1"/></linearGradient><linearGradient id="linear-gradient-8" x1="1388.82" y1="542.4" x2="1388.82" y2="458.99" gradientUnits="userSpaceOnUse"><stop offset="0" stop-color="#b1b1b1"/><stop offset="1" stop-color="#f1f1f1"/></linearGradient><linearGradient id="linear-gradient-9" x1="446.33" y1="780.54" x2="446.33" y2="597.37" xlink:href="#linear-gradient-2"/><linearGradient id="linear-gradient-10" x1="696.95" y1="780.54" x2="696.95" y2="597.37" xlink:href="#linear-gradient-2"/><linearGradient id="linear-gradient-11" x1="687" y1="780.54" x2="687" y2="597.36" xlink:href="#linear-gradient-2"/><linearGradient id="linear-gradient-12" x1="875" y1="780.53" x2="875" y2="597.37" xlink:href="#linear-gradient-2"/><linearGradient id="linear-gradient-13" x1="703" y1="780.53" x2="703" y2="597.36" xlink:href="#linear-gradient-2"/><linearGradient id="linear-gradient-14" x1="607" y1="780.54" x2="607" y2="597.36" xlink:href="#linear-gradient-2"/><linearGradient id="linear-gradient-15" x1="584.8" y1="780.56" x2="584.8" y2="597.36" xlink:href="#linear-gradient-2"/><linearGradient id="linear-gradient-16" x1="370.33" y1="780.54" x2="370.33" y2="597.36" xlink:href="#linear-gradient-2"/><linearGradient id="linear-gradient-17" x1="250.33" y1="780.54" x2="250.33" y2="597.36" xlink:href="#linear-gradient-2"/><linearGradient id="linear-gradient-18" x1="1030.17" y1="780.54" x2="1030.17" y2="597.36" xlink:href="#linear-gradient-2"/><linearGradient id="linear-gradient-19" x1="1091.17" y1="780.54" x2="1091.17" y2="597.36" xlink:href="#linear-gradient-2"/><linearGradient id="linear-gradient-20" x1="1070.67" y1="780.54" x2="1070.67" y2="597.36" xlink:href="#linear-gradient-2"/><linearGradient id="linear-gradient-21" x1="1120.5" y1="780.54" x2="1120.5" y2="597.36" xlink:href="#linear-gradient-2"/><linearGradient id="linear-gradient-22" x1="1159.33" y1="780.54" x2="1159.33" y2="597.36" xlink:href="#linear-gradient-2"/><linearGradient id="linear-gradient-23" x1="1467.67" y1="780.54" x2="1467.67" y2="597.38" xlink:href="#linear-gradient-2"/><linearGradient id="linear-gradient-24" x1="1446" y1="780.53" x2="1446" y2="597.37" xlink:href="#linear-gradient-2"/><linearGradient id="linear-gradient-25" x1="1298.17" y1="780.54" x2="1298.17" y2="597.36" xlink:href="#linear-gradient-2"/><linearGradient id="linear-gradient-26" x1="1319.67" y1="780.54" x2="1319.67" y2="597.36" xlink:href="#linear-gradient-2"/><linearGradient id="linear-gradient-27" x1="1461" y1="710.45" x2="1461" y2="580.92" xlink:href="#linear-gradient-2"/><linearGradient id="linear-gradient-28" x1="1201.83" y1="780.54" x2="1201.83" y2="597.36" xlink:href="#linear-gradient-2"/><linearGradient id="linear-gradient-29" x1="1075.17" y1="706.65" x2="1075.17" y2="577.14" xlink:href="#linear-gradient-2"/><linearGradient id="linear-gradient-30" x1="1191.5" y1="780.54" x2="1191.5" y2="597.36" xlink:href="#linear-gradient-2"/><linearGradient id="linear-gradient-31" x1="620" y1="780.54" x2="620" y2="597.36" xlink:href="#linear-gradient-2"/><linearGradient id="linear-gradient-32" x1="376" y1="780.54" x2="376" y2="597.36" xlink:href="#linear-gradient-2"/><linearGradient id="linear-gradient-33" x1="513.25" y1="780.54" x2="513.25" y2="597.36" xlink:href="#linear-gradient-2"/><linearGradient id="linear-gradient-34" x1="234.5" y1="683.77" x2="234.5" y2="583.85" xlink:href="#linear-gradient-2"/><linearGradient id="linear-gradient-35" x1="140.5" y1="721.7" x2="140.5" y2="599.59" xlink:href="#linear-gradient-2"/><linearGradient id="linear-gradient-36" x1="542.86" y1="422.4" x2="622.19" y2="679.74" gradientUnits="userSpaceOnUse"><stop offset="0" stop-color="#575757"/><stop offset="1" stop-color="#b1b1b1"/></linearGradient><linearGradient id="linear-gradient-37" x1="968.01" y1="696.86" x2="955.98" y2="543.86" gradientUnits="userSpaceOnUse"><stop offset="0" stop-color="#575757"/><stop offset="1" stop-color="#b1b1b1"/></linearGradient><linearGradient id="linear-gradient-38" x1="1051.33" y1="825.43" x2="1026.33" y2="447.43" xlink:href="#linear-gradient-37"/><linearGradient id="linear-gradient-39" x1="1171.24" y1="621.11" x2="1171.24" y2="447.98" gradientUnits="userSpaceOnUse"><stop offset="0" stop-color="#575757"/><stop offset="1" stop-color="#b1b1b1"/></linearGradient><linearGradient id="linear-gradient-40" x1="1227.63" y1="608.5" x2="1227.63" y2="458.04" xlink:href="#linear-gradient-39"/><linearGradient id="linear-gradient-41" x1="464.04" y1="864.27" x2="439.04" y2="486.27" xlink:href="#linear-gradient-37"/><linearGradient id="linear-gradient-42" x1="541.27" y1="910.23" x2="507.53" y2="400.11" xlink:href="#linear-gradient-37"/><linearGradient id="linear-gradient-43" x1="1344.86" y1="849.1" x2="1307.48" y2="283.88" xlink:href="#linear-gradient-37"/><linearGradient id="linear-gradient-44" x1="195.53" y1="636.97" x2="48.79" y2="471.92" xlink:href="#linear-gradient-37"/><linearGradient id="linear-gradient-45" x1="1695.53" y1="636.97" x2="1548.79" y2="471.92" xlink:href="#linear-gradient-37"/><linearGradient id="linear-gradient-46" x1="96.75" y1="857.32" x2="96.75" y2="613.1" xlink:href="#linear-gradient-2"/><linearGradient id="linear-gradient-47" x1="1596.75" y1="857.32" x2="1596.75" y2="613.1" xlink:href="#linear-gradient-2"/><linearGradient id="linear-gradient-48" x1="117.75" y1="778.06" x2="117.75" y2="591.23" xlink:href="#linear-gradient-2"/><linearGradient id="linear-gradient-49" x1="1617.75" y1="778.06" x2="1617.75" y2="591.23" xlink:href="#linear-gradient-2"/></defs><g id="fon"><g><rect class="cls-42" x="90" width="1500" height="750"/><rect class="cls-42" x="90" width="1500" height="750"/></g></g><g id="land"><g class="cls-30"><g><g><path class="cls-1" d="M116.27,510.1c44.94-.17,30.41-84.39,86.8-61.48,56.39,22.91,35.36-31.13,115.1-14.19,79.74,16.94,76.45-18.14,156.02-6.41,79.57,11.73,76.96-2.52,140.2,.62,63.24,3.14,36.51,4.02,82.82,12.93,46.3,8.91-20.31-31.91,96.42,3.36,116.72,35.27,139.66-34.2,188.87-1.93,49.21,32.27,115.35-22.72,172,8,56.65,30.72,80.71-31.66,143,8,62.29,39.66,146.38,7.64,193.28,34.77,46.9,27.13,52.29,28.26,58.15,43.71,5.86,15.45-1155.51,37.83-1155.51,37.83L116.27,510.1Z"/><path class="cls-41" d="M1317.52,456.34c-8.86-1.07-15.64-1.85-17.86-2.08-3.87-.4-20.38,3.2-37.46,7.3-17.79,1.33-35.47,2.24-53.21,2.52-113,1.76-151,2.65-266-18.52-18.94-3.48-40.58-7.28-63.96-10.98-5.49-1.6-10.68-3.07-15.38-4.34-24.67-6.67-73.33-22.69-91.33-24.91-6.93-.86-27,4.29-49.06,10.94-80.94-5.45-160.28-2.85-211.28,18.71-194,24.69-304,0-422,0v86.49c385.55,5.02,1107.06,13.07,1500,9.03v-95.52c-62.45,0-111.4-27.47-162-22.2-36.72,3.83-77.14,39.93-110.48,43.56Z"/><g><path class="cls-16" d="M509.75,485s-2,2,13.75-15.75,43-32,55.5-32.75,29,2.5,43,2.5,20.75-8,40.75-7.25,18-3.25,48.75,6.25,30.75,45.25,30.75,45.25l-232.5,1.75Z"/><path class="cls-16" d="M1321.5,485.54c33.5-1,126-42,169.5-40.5s58,27.5,79.5,39.5-249,1-249,1Z"/><path class="cls-16" d="M202.5,466.54c50.67,3.67,114.67,12.33,173.67,5.33,59-7,88.48-18.16,51-14.33-45.67,4.67-183,10.33-224.67,9Z"/></g><g><path class="cls-35" d="M1350.5,455.79c-47.57,32.47,121.75-41.25,82.5-33.75s-56.5,16-82.5,33.75Z"/><path class="cls-35" d="M766.33,410.94c-7.75,2.14-41.64,5.16-31.56,10.32,10.08,5.16,40.75,24.95,38.08,18.64-2.67-6.31-8.15-14.62-6.96-19.93,1.19-5.3,9.78-11.61,.44-9.03Z"/></g></g><g><path class="cls-35" d="M1428.99,483.82c-28.46-7.95-89.79-10.76-152.33-11.53-3.89,.66-7.79,1.28-11.7,1.83-9.45,1.32-18.92,2.44-28.41,3.32-8.77,.81-17.89,.77-26.53,2.55-8.58,1.76-15.85,5.84-24.05,8.54-9.01,2.96-18.41,2.23-27.51,4.43-15.8,3.8-28.56,14.11-45.46,13.75-5.78-.12,22.23-13.84,26.25-16.95,9.99-7.71,37.18-13.25,47.5-20.5-3.94-.68-51.89,6.77-55.84,6.04-4.74-.88-9.48-1.63-14.24-2.28-50.56,.27-122.12-4.23-240.41-7.76-30.05-14.46-80.34-17.58-141.42-17.58s-110.02,6.5-115.07,14.77c-34.03,1.14-5.43,22.23-101.77,10.68-1.34-4.95-3.68-6.58-6.75-7.88-18.15-7.64-67.25,2-78.25,5.5-4.54,1.44-8.13,4.03-10.8,6.58-14.35,1.79-28.63,3.75-42.8,5.9-144.13,8.97-221.32-12.4-289.39-1.18v267.95H1589.99V482.06c-27.56,4.61-89.39,4.07-161,1.76Z"/><g><path class="cls-50" d="M1534.33,572.54c-54.03,1.92-61.33-7.33-43.33-14,18-6.67,17.33-19.33-18-20.67-35.33-1.33-73.33-14-136-15.33-18.33-.39-32.26,1.79-44.48,4.71-20.28,6.41,40.72,18.79-34.58,16.62-4.7-.13-10.04-4.02-14.78-2.51-4.46,1.41-8.48,3.23-13.27,2.62-1.66-.21-3.13-.71-4.5-1.34-5.77,.71-11.55,1.29-17.36,1.62-4.69,3.68-12.11,2.47-17.74,.56-10.67,.05-4.05-6.95-34.16-4.08-6.82,1.59-13.54,2.76-19.26-3.07-2.55-2.59-1.76-6.48,1.08-8.42,2.69-1.83,6.03-2.6,9.07-3.65,.35-.12,.8-.26,1.27-.42-.38-.31-.78-.61-1.2-.87-3.08-1.95-6.37-3.51-9.78-4.82-13.55-3.66-29.51-5.61-70.98-5.61-84,0-342,6.67-280,16.67s-6.67,38-52.67,42.67c-46,4.67-82-6.67-122-6-40,.67,14.67,14-69.33,13.33-84-.67-99.33-22-174-18.67-17.12,.77-32.3,2.9-46.06,5.63-.06,1.01,.44,2.11,1.79,3.27,2.81,2.41,6.4,3.79,9.94,4.73,8.07,2.14-12.8,5.47-4.68,7.37,22.15,5.15,82.69,16.47,105.67,16.67,5.88,.05-2.14,3.08-8.24,4.17-13.79,2.47-27.65,1.57-41.48-.08-13.2-1.57-26.38-3.15-39.35-6.12-13.64-3.13-26.52-8.26-39.98-11.92-6.46-1.76-24.87-.95-31.61-.71-6.73,.24-24.61,11.72-31.33,12-76.17,3.13-13.21-7.67-29.33-11-42-8.67-94.54-9.81-123.67-9.81v126.81c46.21,2.69,102.34,2.11,154.33-11,111-28,227-42.34,299-17.67,72,24.67,35.11,2.41,87-1,45.67-3,118-4,150,9.67,57.05,24.36,114,5.67,144-13,30-18.67,192.26-18.82,207.42-.33,11.75,14.33,27.46,1.64,31.09,6.24,7.83,9.93,23.37,12.59,32.74,9.59,6.6-2.12,27.43-5.33,10.76,4.17-4.19,2.38-17.46,8.53-22.38,8.68,5.31,2.27,3.04,11.15,20.38,13.66,60.65,8.75,120,33.33,206.67,22,86.67-11.33,7.72-33.04,81.33-39.33,28.33-2.42,62.53,5.73,97.67,8.4v-126.88c-39.5,0-34.93-4.26-55.67-3.52Zm-797.91,57.84c-8,3.23-16.17,4.08-24.76,4.86-28.42,2.55-66.83-7.37-59.92-7.45,7.73-.08,91,.03,84.67,2.59Zm303.83-84.59c-26,1.75-65.5-1.5-117-3.5s8.5-8.83,48.75-8.5c60.5,.5,94.25,10.25,68.25,12Zm121.42,29.45c-8.74,5.37-44.91,.39-52.83-5.86-5.43-4.28-2.07-10.86,3.29-6.62,14.03,11.06,28.71,11.96,49.54,12.48Zm75.38,32.31c-45.63-6.99-26.96-13.83,28.29-15.01-28.83,6,2.67,19.75-28.29,15.01Zm211.38,44.16c-3.22,.61-6.4,.78-9.33,1.33-2.87,.54-44.52-2.7-41.84-4.25,16-9.25,54.05,2.38,51.18,2.92Zm91.91-3.14c-10.24,.04-20.48,.57-30.67-.67-6.77-.82,10.6-5.08,20.83-5.11,6.92-.03,16.75,5.75,9.83,5.78Z"/><g><g><path class="cls-33" d="M831.17,482.54l102-3.83s-66-3.17-74-6.83c-8-3.67-51.19-14.54-36.5-5.67,16,9.67-53.33,40.67,8.5,16.33Z"/><path class="cls-33" d="M626.17,468.54c-5.81,.13,.33,11.5-1.33,13.5s32.33,2.5,42.5,.67c10.17-1.83-4-15-41.17-14.17Z"/><path class="cls-33" d="M147.75,478.75s103.25,2.12,120.58,16.46c17.33,14.33,62.33,6.33,118,.33,55.67-6,41.67-4.33-19.33-4-61,.33-158.25-36.46-219.25-12.79Z"/></g><g><path class="cls-28" d="M795,491.21c-.27,1.64-1,7-20,7s-71.67,.67-117.33,3.33c-45.67,2.67-58.67-.33-58.67-.33,0,0,41.33-5.67,74-5,32.67,.67,84-4,96.67-5,12.67-1,27.67-14,25.33,0Z"/><path class="cls-11" d="M735,533.54s-297-7.33-356.67-3c-59.67,4.33-126,12.67-145.33,13.33-19.33,.67,5.33-2.67,31.67-7.67,26.33-5,67.33-9.33,81.67-13.67,14.33-4.33,11-8.33,58.67-4.67,47.67,3.67,329.5,.17,330,15.67Z"/><path class="cls-34" d="M978.67,508.04c32.17,.39,103.33-2.83,104.83-6.67,1.5-3.83-101.17-7.17-115-1.67s-59.33,7.5,10.17,8.33Z"/><path class="cls-51" d="M1341.67,515.37c30.08,2.59,30,6.17,74.17,6.67s26.83,1.17,55.5-2.67c28.67-3.83,42.17-10.5,71-10.67,28.83-.17,21.83-3-16.17-2s-45.33,5.67-99.5,3.17,.33-7-44.83-8-202.83-4.5-155.5-1.83c47.33,2.67,170.33,10.83,131.5,11.67-38.83,.83-47.17,1-16.17,3.67Z"/></g></g><g><g><path class="cls-37" d="M575.58,721.37c-30.23,9.99-63.71,10.29-95.25,10.54-48.82,.37-98.56,3.96-145.67-11.28-118.28,4.59-202.33,16.25-202.33,29.91H760.33c0-12.98-75.8-24.15-184.75-29.17Z"/><path class="cls-19" d="M685.5,693.21c-22.89,0-44.38,1.17-62.95,3.21-2.75,2.49-5.67,4.83-8.59,7.08-.42,2.67-1.28,5.33-2.74,8.02-3.37,6.22-8.85,11.23-15.06,14.56-4.81,2.58-9.95,4.56-15.26,5.9,23.04,6.39,61.3,10.56,104.6,10.56,70.42,0,127.5-11.04,127.5-24.67s-57.08-24.67-127.5-24.67Z"/><path class="cls-17" d="M767.67,691.95c0,5.2-36.12,9.42-80.67,9.42s-80.67-4.22-80.67-9.42,36.12-9.42,80.67-9.42,80.67,4.22,80.67,9.42Z"/><path class="cls-55" d="M905,655.87c0,3.68-13.43,6.67-30,6.67s-30-2.98-30-6.67,13.43-6.67,30-6.67,30,2.98,30,6.67Z"/><path class="cls-56" d="M703,591.87c-56.7,0-102.67,5.07-102.67,11.33s45.97,11.33,102.67,11.33,102.67-5.07,102.67-11.33-45.97-11.33-102.67-11.33Zm26.67,19.5c-15.33-.5,49-12.5,66.17-7,0,0-50.83,7.5-66.17,7Z"/><ellipse class="cls-8" cx="607" cy="604.87" rx="56" ry="11"/><path class="cls-4" d="M612.75,596.87c-30.93,0-56,4.58-56,10.23,0,.28,.08,.55,.19,.82,6.01-5.72,58.38-11.05,55.81-11.05Z"/><path class="cls-22" d="M370.33,629.87c-44.92,0-81.33,4.48-81.33,10,0,3.56,15.11,6.68,37.84,8.45,5.06-2.16,9.55-3.72,9.66-2.53,.09,.95,.24,2.08,.67,3.21,10.13,.56,21.34,.87,33.16,.87,13.18,0,25.62-.39,36.63-1.07-1.1-3.18-2.37-6.4-1.96-6.26,.39,.13,6.7,2.82,12.92,5.44,20.43-1.82,33.74-4.77,33.74-8.11,0-5.52-36.41-10-81.33-10Z"/><path class="cls-2" d="M343,713.54c0,10.86-41.49,19.67-92.67,19.67s-92.67-8.8-92.67-19.67,41.49-19.67,92.67-19.67,92.67,8.8,92.67,19.67Z"/><ellipse class="cls-5" cx="1030.17" cy="686.54" rx="43.83" ry="9.33"/><path class="cls-49" d="M1151,718.04c0,9.11-26.79,16.5-59.83,16.5s-59.83-7.39-59.83-16.5,26.79-16.5,59.83-16.5,59.83,7.39,59.83,16.5Z"/><ellipse class="cls-10" cx="1070.67" cy="674.37" rx="49.67" ry="11.83"/><path class="cls-26" d="M1120.5,727.54c-78.28,0-145.6,9.45-175.42,23h350.84c-29.83-13.55-97.14-23-175.42-23Z"/><ellipse class="cls-38" cx="1159.33" cy="728.54" rx="45" ry="15.33"/><path class="cls-48" d="M1467.67,736.87c-22.99,0-42.71,5.63-51.21,13.67h102.42c-8.5-8.04-28.22-13.67-51.21-13.67Z"/><path class="cls-36" d="M1530,661.7c0,2.67-37.61,4.83-84,4.83s-84-2.16-84-4.83,37.61-4.83,84-4.83,84,2.16,84,4.83Z"/><ellipse class="cls-27" cx="1298.17" cy="641.54" rx="28.5" ry="6"/><path class="cls-57" d="M1330,555.71c0,1.38-4.63,2.5-10.33,2.5s-10.33-1.12-10.33-2.5,4.63-2.5,10.33-2.5,10.33,1.12,10.33,2.5Z"/><path class="cls-43" d="M1480,544.87c0,2.03-38,2.03-38,0s8.51-3.67,19-3.67,19,1.64,19,3.67Z"/><ellipse class="cls-7" cx="1201.83" cy="577.71" rx="16.5" ry="2.5"/><path class="cls-46" d="M1087.67,531.54c0,2.21-25,2.21-25,0s5.6-4,12.5-4,12.5,1.79,12.5,4Z"/><ellipse class="cls-47" cx="1191.5" cy="673.79" rx="11.75" ry="4.75"/><ellipse class="cls-23" cx="620" cy="576.79" rx="14.5" ry="2.75"/><ellipse class="cls-15" cx="376" cy="578.04" rx="16.5" ry="2.5"/><ellipse class="cls-44" cx="513.25" cy="639.79" rx="15.75" ry="4.75"/><ellipse class="cls-31" cx="234.5" cy="570.04" rx="13.5" ry="3"/><path class="cls-13" d="M162.5,598.37c0,3.13-9.85,5.67-22,5.67s-22-2.54-22-5.67,9.85-5.67,22-5.67,22,2.54,22,5.67Z"/></g><g><g><g><ellipse class="cls-33" cx="990" cy="713.54" rx="17" ry="3"/><path class="cls-33" d="M1154.33,629.87c0,.92-2.24,1.67-5,1.67s-5-.75-5-1.67,2.24-1.67,5-1.67,5,.75,5,1.67Z"/><path class="cls-33" d="M1129,548.21c0,1.66-3.43,3-7.67,3s-7.67-1.34-7.67-3,3.43-3,7.67-3,7.67,1.34,7.67,3Z"/><path class="cls-33" d="M814.33,501.87c0,.74-4.78,1.33-10.67,1.33s-10.67-.6-10.67-1.33,4.78-1.33,10.67-1.33,10.67,.6,10.67,1.33Z"/><ellipse class="cls-33" cx="226" cy="715.21" rx="34.33" ry="4"/><path class="cls-33" d="M840.67,737.21c0,2.76-7.46,5-16.67,5s-16.67-2.24-16.67-5,7.46-5,16.67-5,16.67,2.24,16.67,5Z"/><ellipse class="cls-33" cx="451" cy="591.87" rx="14" ry="2"/><ellipse class="cls-33" cx="277" cy="592.21" rx="8" ry="1.67"/><path class="cls-33" d="M1477,679.54c0,.92-2.98,1.67-6.67,1.67s-6.67-.75-6.67-1.67,2.98-1.67,6.67-1.67,6.67,.75,6.67,1.67Z"/><path class="cls-33" d="M1549.92,578.79c0,1.47-3.88,2.67-8.67,2.67s-8.67-1.19-8.67-2.67,3.88-2.67,8.67-2.67,8.67,1.2,8.67,2.67Z"/><path class="cls-33" d="M1559.67,729.87c0,2.95-7.01,5.33-15.67,5.33s-15.67-2.39-15.67-5.33,7.01-5.33,15.67-5.33,15.67,2.39,15.67,5.33Z"/></g><g><path class="cls-33" d="M772.59,652.58c0,1.66-11.42,3-25.5,3s-25.5-1.34-25.5-3,11.42-3,25.5-3,25.5,1.34,25.5,3Z"/><path class="cls-33" d="M786.13,652.4c.02,.1,.04,.2,.04,.3,0,5.02-19.48,9.08-43.5,9.08-1.96,0-3.89-.03-5.79-.08,5.4,.74,11.85,1.17,18.79,1.17,18.96,0,34.33-3.21,34.33-7.17,0-1.19-1.4-2.31-3.87-3.3Z"/><path class="cls-40" d="M718.54,649.29s-13.04,1.64,.38,5.88c-12-1.41-14-5.88-.38-5.88Z"/></g></g><g><path class="cls-25" d="M712.62,702.79c-1.77-2.79-6.02-4.75-10.99-4.75s-9.23,1.96-10.99,4.75h21.99Z"/><path class="cls-25" d="M668.87,652.04c-.98-2.79-3.35-4.75-6.12-4.75s-5.14,1.96-6.12,4.75h12.24Z"/><path class="cls-25" d="M854.87,681.29c-.98-2.79-3.35-4.75-6.12-4.75s-5.14,1.96-6.12,4.75h12.24Z"/><path class="cls-25" d="M726.12,563.29c-1.63-3.96-5.54-6.75-10.12-6.75s-8.49,2.79-10.12,6.75h20.24Z"/><path class="cls-25" d="M319.62,736.04c-2.85-6.45-9.72-11-17.74-11s-14.89,4.55-17.74,11h35.49Z"/><path class="cls-25" d="M1256.37,652.79c-1.91-3.76-6.5-6.42-11.87-6.42s-9.96,2.65-11.87,6.42h23.74Z"/><path class="cls-25" d="M1503.28,717.62c-1.2-2.35-4.08-4-7.45-4s-6.25,1.65-7.45,4h14.9Z"/><path class="cls-25" d="M965.12,728.79c-2.57-1.76-8.76-3-15.99-3s-13.42,1.24-15.99,3h31.99Z"/></g></g></g></g><g><g><g><g><path class="cls-9" d="M703.03,544.19c-21.25-3.75-21.03-22.99-21.03-22.99h-203.22c-3.25,9.99-13.75,21.49-23.75,24.49s13.75,3.5,20.5-2.5,8,.75,4.25,7.5,12.5-2.75,18.75-8.5,8.25,.5,7.5,6.25c-.1,.78,.42,1.14,1.37,1.22,.85-1.68,1.72-3.33,2.6-4.87,5.25-9.25,7-11.75,7-11.75,0,0,10.33,2.82,17.02,12.18,4.03,.18,7.31,1.44,8.76,4.72,5.5,12.5,12.75,0,13.75-4s17-7.5,22.5,1.25c2.56,4.07,5.6,5.49,8.48,5.19,1.04-7.19,2.05-13.89,2.74-17.59,6.12-.62,12.86-.63,19.41,6.39,5.01,.35,10.36,2.01,14.37,5.02,9,6.75,5,5.25,10,3.5s8.5-5.75,10-7,14.5,3.25,27.75,7-4.5-3-14.5-9.5,8.75-5.5,19.75,.25,47.25,7.5,26,3.75Z"/><path class="cls-33" d="M682.6,521.33c0,4.56-45.66,8.25-101.99,8.25s-102-3.69-102-8.25,45.66-8.25,102-8.25,101.99,3.69,101.99,8.25Z"/><g><polygon class="cls-33" points="672.92 523.45 674.25 530.54 667.5 523.37 672.92 523.45"/><polygon class="cls-33" points="644.83 526.37 646.75 531.95 643 529.04 642.33 530.04 639.75 526.29 644.83 526.37"/><polygon class="cls-33" points="579.17 528.12 578.42 533.79 574.67 528.21 579.17 528.12"/><path class="cls-33" d="M534.67,527.54s-1.17,3.08-.92,3.08,3.08-.33,3.08-.33l3.17,8.75,2.33-11.42-7.67-.08Z"/></g><path class="cls-12" d="M579,518.28c-14.39-.23-30.07-.36-46.49-.36-60.98,0-59.62,7.33-7.02,7.33,23.75,0,45.97-.27,64.95-.74-3.89-1.95-7.7-4.02-11.44-6.23Z"/></g><g><path class="cls-40" d="M549.81,534.23s-3.69,22-7.12,29.12c0,0,12.94,.94,7.12-29.12Z"/><path class="cls-33" d="M619.83,536.21s10.08,23.83,29.92,24.5c0,0-14.08-6.33-29.92-24.5Z"/><path class="cls-40" d="M493.5,536.12s-11.5,19-19.75,21.83c-8.25,2.83,8-9.83,19.75-21.83Z"/><path class="cls-40" d="M473.83,530.77s-13.84,21.52-25.08,17.22c-11.33-4.33,4.67,4.25,25.08-17.22Z"/></g></g><g><path class="cls-21" d="M1076.17,584.04h-232.67s-5,19.75-21,31,10.5-1.75,18.75-7,20-1.75,23.25,3.25,13.5,5.75,17,1.75,34.5-4.5,45.5,1.75,22.25,5.75,25,1.5,19.25,8.75,23,11.25,2.5-24.5,7.5-24.75,24.75,7.25,26.25,9.75,15.5,9,15.25,6.25-2.5-15,4-13.5,30,5.75,38.25,7.25,4.25-7.75,5.25-11.5,24.25,11.5,32,10-6.58-2.25-27.33-27Z"/><path class="cls-45" d="M1102.19,602.37c15.66,2.74,25.06,6.5,25.2,10.89,.32,10.46-52.12,20.54-117.12,22.5-29.53,.89-56.58-.04-77.33-2.31,21.67,3.79,55.34,5.63,93.07,4.49,65-1.97,117.43-12.04,117.12-22.51-.17-5.71-16.02-10.35-40.94-13.07Z"/><g><path class="cls-33" d="M1014.13,606.04s7.62,22.25,18.38,23.38-9-6.75-18.38-23.38Z"/><path class="cls-40" d="M877,604.41s-.5,28.12-11.12,31,3.38-4.88,11.12-31Z"/><path class="cls-40" d="M838.25,596.79s-11,27-25.38,24.38,6.25-1.12,25.38-24.38Z"/></g><g><path class="cls-33" d="M1047.69,574.66c-14.94,2.23-30.32-5.82-88.03-5.82-49.83,0-117.41,7.46-117.41,15.33s52.72,14.25,117.74,14.25,117.74-6.38,117.74-14.25c0-3.65-11.37-6.98-30.05-9.51Z"/><path class="cls-16" d="M948.5,573.54s50.62-.5,54,.25c17.62,6.38-6.38-1.88-14.75,2.62s-12.38,.75-17.62,2.5-14.38-2.88-17.12-1.62-29-1.5-4.5-3.75Z"/><path class="cls-12" d="M907.13,578.42c-54.63,.29-65.54,8.84-32.74,12.43,2.08-.58,4.16-1.12,6.31-1.41,4.35-.59,8.14,.63,12.36,1.42,3.97,.75,8.23,.67,12.25,.65,4.75-.01,9.52-.22,14.23-.85-4.27-3.96-8.39-8.05-12.41-12.24Z"/><path class="cls-12" d="M918.42,578.79c-.33,.26,9.83,11.58,15.42,12.25,5.58,.67,13.67,.83,13.67,.83,0,0-5.75-4.75-11.83-7.58-6.08-2.83-15.17-7.17-17.25-5.5Z"/><g><polygon class="cls-33" points="1052.38 589.91 1060.5 601.16 1058.25 586.91 1052.38 589.91"/><polygon class="cls-33" points="1002.63 594.41 1006.75 601.41 1007.63 594.29 1002.63 594.41"/><polygon class="cls-33" points="931.25 596.04 927.13 606.41 924.5 599.29 919.63 600.66 915 595.41 931.25 596.04"/></g></g></g><g><path class="cls-18" d="M1176.72,517.34c.33-.8-4.16-2.12-4.16-2.12-4.16,4.27-9.5,10.43-5.25,8.68,2.3-.95,9.22-6.12,9.41-6.56Z"/><path class="cls-6" d="M1268.92,515.25c-1.5-.25-27.79-2.71-30.92-2.46-1.88,.15-28.44,1.52-49.37,2.58-.39,.88-6.02,1.53-6.92,2.34-1.59,1.42-3,8.12-5.46,14.04,2.72,.32,9.79-5.96,13.12-6.59,6.2-1.17,10.5,1.75,17.25,.38s10-.75,10.88,3.5,1.5,10.62,3.75,6.12-.12-7.25,5.5-7.38,8.5-1,12-1.12,2.62-2.88,8.38-1.5,6.76-3.92,13,.75c7.09,5.3,12.75,3.79,12.38,3.38-3.09-3.51-2.28-6.01-2.28-6.01,0,0,.91-2.37,3.91-1.12s5,.25,4.88-.12-8.58-6.54-10.08-6.79Z"/><path class="cls-33" d="M1269.83,515.46c0,2.46-21.91,4.46-48.93,4.46s-48.93-2-48.93-4.46,21.91-4.46,48.93-4.46,48.93,2,48.93,4.46Z"/><path class="cls-25" d="M1166.75,519.6s-3.31,5.31-5.25,5.25c-1.94-.06,2.94-6.38,5.25-5.25Z"/><path class="cls-25" d="M1175.35,525.85s-1.06,10.19-4.19,10.69-.06-5.62,4.19-10.69Z"/></g><g><ellipse class="cls-33" cx="447.86" cy="687.99" rx="99.75" ry="15.58"/><path class="cls-12" d="M457.67,675.83c-54.89,0-99.38,6.34-99.38,14.16,0,1.43,1.49,2.81,4.26,4.11-.02-.12,108.27-18.27,95.12-18.27Z"/><path class="cls-16" d="M522.83,683.79c-2.8,3.77-9.36,8.52-24.24,12.81,22.21-1.08,38.17-4.06,38.17-7.56,0-2.01-5.26-3.85-13.92-5.25Z"/><path class="cls-24" d="M568.97,686.24c.45,.92,.69,1.85,.69,2.8,0,14.45-54.4,26.17-121.5,26.17-55.06,0-101.55-7.89-116.47-18.7,6.48,13.14,58.09,23.37,120.81,23.37,67.1,0,121.5-11.71,121.5-26.17,0-2.59-1.76-5.1-5.03-7.46Z"/><path class="cls-16" d="M448.54,698.26c-14.42,0-27.77-.52-38.73-1.39,7.59,2.34,22.09,3.93,38.73,3.93s31.14-1.58,38.73-3.93c-10.96,.88-24.31,1.39-38.73,1.39Z"/><path class="cls-40" d="M363.75,672.79s-31.75,1.5-32,16.5c0,0,5.5-8.5,32-16.5Z"/><path class="cls-39" d="M577.95,709s-10.33,21.25-99.2,22.75c64.23,13.22,106.97-11,99.2-22.75Z"/></g><g><path class="cls-33" d="M1387.44,693.8c-4.77,2.64-15.69,.11-15.69,.11l1.33-3.64c-15.55-2.91-36.8-4.7-60.26-4.7-12.24,0-23.87,.49-34.41,1.37-6.4,2.27-13.55,4.43-18.53,4.72-4.96,.29-8.57-.13-11.03-.65-13.84,2.93-22.27,6.81-22.27,11.06,0,9.11,38.61,16.5,86.25,16.5s86.25-7.39,86.25-16.5c0-3.02-4.25-5.84-11.63-8.27Z"/><path class="cls-33" d="M1387,707.04s10.38,8.38,16.12,10.38-10.38,1.5-25.12-5.75,9-4.62,9-4.62Z"/><path class="cls-3" d="M1378.33,717.87s-32.83,8.11-84,4.49c2.5,4.24,83.54,10.38,84-4.49Z"/><path class="cls-12" d="M1245.59,704.56c-.94-.45-1.88-.89-2.81-1.33-2.46-1.16-4.89-2.36-7.27-3.63-2.92,1.56-4.86,3.34-2.88,4.69,7.5,5.12,21,6.62,21,6.62,0,0-5.42-2.34-8.04-6.36Z"/><path class="cls-12" d="M1358.17,703.04s-82.67-.17-92.33,2.5c0,0,34.33-10.17,92.33-2.5Z"/><path class="cls-16" d="M1369.5,710.87s-43.5,3.67-69.33,3.33c-25.83-.33,15.33-5.83,25.5-6.5,10.17-.67,42.5-3.17,43.83,3.17Z"/></g><g><path class="cls-33" d="M1422.06,589.71l-5.89,2.83-2.64-3.47c-9.87-.64-20.56-.99-31.71-.99-20.63,0-39.66,1.2-54.9,3.21-1.74,1.7-3.69,3.29-5.58,4.08-2.38,1-6.49-.02-10.24-1.41-12.52,2.7-20.03,6.13-20.03,9.87,0,8.7,40.63,15.75,90.75,15.75s90.75-7.05,90.75-15.75c0-6.19-20.58-11.54-50.5-14.12Z"/><path class="cls-33" d="M1333.38,613.54s-1.75,9-3.75,10.25,22.5,.25,24.62-8.62-20.88-1.62-20.88-1.62Z"/><path class="cls-16" d="M1357.18,606.18c8.23,3.23,26.84,5.48,48.49,5.48,29.27,0,53-4.12,53-9.2,0-.37-.13-.74-.38-1.1-19.38,1.11-74.8,4.02-101.11,4.82Z"/><path class="cls-35" d="M1486.08,601.69c2.9,1.82,4.46,3.75,4.46,5.74,0,11.39-50.91,20.62-113.7,20.62-22.61,0-43.68-1.2-61.39-3.26-16.58-1.93-19.74-.2-2.18,2.41,19.61,2.92,44.69,4.67,72.03,4.67,62.79,0,113.7-9.23,113.7-20.62,0-3.45-4.67-6.7-12.92-9.55Z"/><path class="cls-25" d="M1288.33,606.04l-6.83,12s6.33-2.67,8.42-4.33-2.42-4.08-1.58-7.67Z"/></g></g><g><g><g><path class="cls-52" d="M14.2,525.21s-5.69,6.5-11.94,10.75,1.88,2.88,7.38,2.12,11.25-3.75,17.88-4.5,5.81,7.83,12.19,8.08,12.67-5.96,18.17-7.83,8.75,11.83,23.75,1.5c8.89-6.12,17.77,4.62,23.52,6.25s8.5-7.12,9.75-10,16.62-1.62,17.38-1.12,23.5,28.75,25.62,18.38,2.75-16.25,7.38-17.88,20-5.12,24-2.12,18.61,17.46,25.88,13.88c-2.94-3.5-6.62-4.75-10.75-17.12-8.88-1.62-58.88-1.75-59.62-1.75s-130.56,1.38-130.56,1.38Z"/><path class="cls-33" d="M204.95,525.5c0,3.96-42.98,7.17-96,7.17s-96-3.21-96-7.17,42.98-7.17,96-7.17,96,3.21,96,7.17Z"/><path class="cls-25" d="M42.28,535.42s-4.5,15.67-8.5,14.67,0-11.42,8.5-14.67Z"/><path class="cls-12" d="M111.7,524.58c-27.47,0-52.25,1.02-69.74,2.66,17.45,1.6,41.91,2.59,68.99,2.59s52.25-1.02,69.74-2.66c-17.45-1.6-41.91-2.59-68.99-2.59Z"/></g><g><path class="cls-29" d="M1514.2,525.21s-5.69,6.5-11.94,10.75,1.88,2.88,7.38,2.12,11.25-3.75,17.88-4.5,5.81,7.83,12.19,8.08,12.67-5.96,18.17-7.83,8.75,11.83,23.75,1.5c8.89-6.12,17.77,4.62,23.52,6.25s8.5-7.12,9.75-10,16.62-1.62,17.38-1.12,23.5,28.75,25.62,18.38,2.75-16.25,7.38-17.88,20-5.12,24-2.12,18.61,17.46,25.88,13.88c-2.94-3.5-6.62-4.75-10.75-17.12-8.88-1.62-58.88-1.75-59.62-1.75s-130.56,1.38-130.56,1.38Z"/><path class="cls-33" d="M1704.95,525.5c0,3.96-42.98,7.17-96,7.17s-96-3.21-96-7.17,42.98-7.17,96-7.17,96,3.21,96,7.17Z"/><path class="cls-25" d="M1542.28,535.42s-4.5,15.67-8.5,14.67,0-11.42,8.5-14.67Z"/><path class="cls-12" d="M1611.7,524.58c-27.47,0-52.25,1.02-69.74,2.66,17.45,1.6,41.91,2.59,68.99,2.59s52.25-1.02,69.74-2.66c-17.45-1.6-41.91-2.59-68.99-2.59Z"/></g></g><g><path class="cls-54" d="M143.5,567.33c0,2.58-20.93,4.67-46.75,4.67s-46.75-2.09-46.75-4.67,20.93-4.67,46.75-4.67,46.75,2.09,46.75,4.67Z"/><path class="cls-53" d="M1643.5,567.33c0,2.58-20.93,4.67-46.75,4.67s-46.75-2.09-46.75-4.67,20.93-4.67,46.75-4.67,46.75,2.09,46.75,4.67Z"/></g><g><path class="cls-14" d="M117.75,659.75c-53.99,0-97.75,7.61-97.75,17,0,4.23,8.87,8.09,23.55,11.07,3.9-2.96,6.13-5.76,10.37-4.32,5.92,2.03,9.94,4.22,12.89,7.76,14.84,1.58,32.28,2.49,50.95,2.49,9.19,0,18.08-.22,26.51-.63,.16-.22,.32-.46,.49-.7,3-4.33,14-3.83,20.67-4.42,3.35-.29,6.68,1.14,9.32,2.56,3.15-.39,6.16-.82,9.01-1.27,2.41-2.65,5-5.71,5-5.71,0,0,2.6,2.16,4.77,3.91,4.03-.86,7.58-1.79,10.59-2.77-1.17-2.82-4.61-5.63-4.61-5.63,0,0,.67-1.25,4.42-.75,1.84,.25,3.59,2.43,4.91,4.6,4.31-1.92,6.67-4,6.67-6.18,0-9.39-43.76-17-97.75-17Z"/><path class="cls-20" d="M1617.75,659.75c-53.99,0-97.75,7.61-97.75,17,0,4.23,8.87,8.09,23.55,11.07,3.9-2.96,6.13-5.76,10.37-4.32,5.92,2.03,9.94,4.22,12.89,7.76,14.84,1.58,32.28,2.49,50.95,2.49,9.19,0,18.08-.22,26.51-.63,.16-.22,.32-.46,.49-.7,3-4.33,14-3.83,20.67-4.42,3.35-.29,6.68,1.14,9.32,2.56,3.15-.39,6.16-.82,9.01-1.27,2.41-2.65,5-5.71,5-5.71,0,0,2.6,2.16,4.77,3.91,4.03-.86,7.58-1.79,10.59-2.77-1.17-2.82-4.61-5.63-4.61-5.63,0,0,.67-1.25,4.42-.75,1.84,.25,3.59,2.43,4.91,4.6,4.31-1.92,6.67-4,6.67-6.18,0-9.39-43.76-17-97.75-17Z"/></g></g></g></g></g></g></g></svg>