<?xml version="1.0" encoding="UTF-8" standalone="no"?>
<svg
   viewBox="0 0 640 400"
   data-background-color="#000000"
   preserveAspectRatio="xMidYMid meet"
   height="400"
   width="640"
   version="1.1"
   id="svg86"
   sodipodi:docname="amoonzon-logo2.svg"
   inkscape:version="1.2.1 (9c6d41e410, 2022-07-14)"
   xmlns:inkscape="http://www.inkscape.org/namespaces/inkscape"
   xmlns:sodipodi="http://sodipodi.sourceforge.net/DTD/sodipodi-0.dtd"
   xmlns="http://www.w3.org/2000/svg"
   xmlns:svg="http://www.w3.org/2000/svg">
  <sodipodi:namedview
     id="namedview88"
     pagecolor="#505050"
     bordercolor="#eeeeee"
     borderopacity="1"
     inkscape:showpageshadow="0"
     inkscape:pageopacity="0"
     inkscape:pagecheckerboard="0"
     inkscape:deskcolor="#505050"
     showgrid="false"
     inkscape:zoom="1.890625"
     inkscape:cx="320"
     inkscape:cy="199.93388"
     inkscape:window-width="2560"
     inkscape:window-height="1369"
     inkscape:window-x="1912"
     inkscape:window-y="-8"
     inkscape:window-maximized="1"
     inkscape:current-layer="svg86" />
  <g
     id="tight-bounds"
     transform="matrix(1,0,0,1,122.24000000000001,165.935697663609)">
    <svg
       viewBox="0 0 395.52 68.12860467278202"
       height="68.12860467278202"
       width="395.52"
       version="1.1"
       id="svg79">
      <g
         id="g77">
        <svg
           viewBox="0 0 395.52 68.12860467278202"
           height="68.12860467278202"
           width="395.52"
           version="1.1"
           id="svg75">
          <g
             transform="matrix(1,0,0,1,0,35.050259693975946)"
             id="g62">
            <svg
               viewBox="0 0 395.52 33.078344978806065"
               height="33.078344978806065"
               width="395.52"
               version="1.1"
               id="svg60">
              <g
                 id="g58">
                <svg
                   viewBox="0 0 395.52 33.078344978806065"
                   height="33.078344978806065"
                   width="395.52"
                   version="1.1"
                   id="svg56">
                  <g
                     id="g54">
                    <svg
                       viewBox="0 0 395.52 33.078344978806065"
                       height="33.078344978806065"
                       width="395.52"
                       version="1.1"
                       id="svg52">
                      <g
                         transform="matrix(1,0,0,1,0,0)"
                         id="g50">
                        <svg
                           width="395.52"
                           viewBox="2.913680076599121 -16.35158920288086 461.3262634277344 38.58190155029297"
                           height="33.078344978806065"
                           data-palette-color="#ff9800"
                           version="1.1"
                           id="svg48">
                          <path
                             d="M5.141-13.507v0l5.831-2.845 9.999 0.907-0.498 5.488-9.411-0.854-0.52 5.727 9.412 0.853-0.502 5.527-9.411-0.853-1.012 11.164-6.115-0.554zM38.574-10.475v0l-5.423-3.865-9.999-0.907-0.498 5.487 9.611 0.872-0.52 5.727-9.61-0.872-0.502 5.527 9.611 0.872-1.012 11.164 6.114 0.555zM47.33-13.202v0l5.545 0.408 9.319 10.161-0.539 7.34-8.781-9.58-1.476 20.066-6.123-0.45zM80.819-10.739v0l-5.495-0.404-10.756 8.684-0.54 7.34 10.088-8.192-1.475 20.066 6.123 0.45zM89.08-6.917v0l5.878-3.038 10.074 0.56-0.306 5.501-9.635-0.535-0.934 16.784 9.436 0.524-0.317 5.692-9.874-0.55-5.508-3.621zM122.598-5.053v0l-5.315-3.66-10.064-0.56-0.306 5.501 9.435 0.525-0.933 16.784-9.436-0.525-0.316 5.691 10.064 0.56 5.685-2.999zM130.155-4.763v0l5.825-3.138 10.083 0.389-0.213 5.505-9.642-0.371-0.648 16.797 9.443 0.364-0.22 5.696-9.882-0.381-5.569-3.527zM163.7-3.47v0l-5.376-3.57-10.073-0.388-0.212 5.506 9.443 0.364-0.648 16.798-9.443-0.365-0.219 5.696 10.072 0.389 5.633-3.096zM171.7 21.366l0.603-28.014 5.558 0.12 9.835 9.664-0.158 7.358-9.262-9.311-0.437 20.315zM189.846 4.992l9.458 9.076 0.432-20.126 6.139 0.132-0.603 28.014-5.748-0.124-9.83-9.863zM230.461-5.843l16.17 0.056-16.229 17.294 0.028-8.43 2.782-3.4-2.77-0.01zM227.975 22.169l-16.18-0.056 16.239-17.294-0.028 8.29-2.741 3.35 2.73 0.01zM212.671-5.904l15.4 0.053-0.019 5.51-15.4-0.053zM230.385 16.477l15.539 0.053-0.019 5.7-15.54-0.053zM250.804-2.484v0l5.661-3.425 10.089-0.116 0.063 5.51-9.649 0.11 0.192 16.809 9.449-0.108 0.065 5.7-9.889 0.113-5.737-3.245zM284.371-2.868v0l-5.548-3.297-10.079 0.115 0.063 5.51 9.449-0.108 0.193 16.809-9.45 0.108 0.065 5.7 10.08-0.116 5.471-3.372zM293.602 21.537l-0.798-28.009 5.558-0.158 10.305 9.161 0.21 7.357-9.716-8.837 0.579 20.311zM310.908 4.277l9.898 8.592-0.573-20.122 6.138-0.174 0.797 28.008-5.747 0.164-10.311-9.36zM332.051 20.353l-0.263-6.714 6.715-0.263 0.262 6.715zM346.513 16.406l-1.081-21.323 5.522-3.644 10.078-0.511 0.279 5.503-9.448 0.479 0.851 16.788 9.248-0.469 0.289 5.693-9.877 0.501zM379.949 8.953l-6.332 0.321 0.17 3.355-9.248 0.469 0.289 5.693 9.877-0.501 5.535-3.595zM373.108-0.753l6.332-0.322-0.281-5.552-5.873-3.067-10.067 0.511 0.279 5.503 9.438-0.479zM386.698-7.141v0l5.459-3.738 10.067-0.683 0.373 5.497-9.628 0.653 1.138 16.772 9.429-0.64 0.385 5.687-9.867 0.669-5.911-2.916zM420.191-9.414v0l-5.725-2.979-10.057 0.682 0.373 5.498 9.428-0.64 1.138 16.771-9.428 0.64 0.386 5.687 10.057-0.682 5.273-3.676zM428.408-13.486v0l5.54-0.471 10.804 8.566 0.623 7.333-10.18-8.077 1.703 20.048-6.117 0.52zM461.867-16.33v0l-5.49 0.467-9.254 10.27 0.624 7.334 8.671-9.679 1.704 20.047 6.118-0.519z"
                             opacity="1"
                             transform="matrix(1,0,0,1,0,0)"
                             fill="#ff9800"
                             class="undefined-text-0"
                             data-fill-palette-color="primary"
                             id="text-0" />
                        </svg>
                      </g>
                    </svg>
                  </g>
                </svg>
              </g>
            </svg>
          </g>
          <g
             transform="matrix(1,0,0,1,181.5367275485646,0)"
             id="g71">
            <svg
               viewBox="0 0 32.44654490287078 33.078344978806065"
               height="33.078344978806065"
               width="32.44654490287078"
               version="1.1"
               id="svg69">
              <g
                 id="g67">
                <svg
                   version="1.1"
                   x="0"
                   y="0"
                   viewBox="48 47.000999450683594 98.08999633789062 100.00000762939453"
                   enable-background="new 0 0 200 200"
                   xml:space="preserve"
                   height="33.078344978806065"
                   width="32.44654490287078"
                   class="icon-icon-0"
                   data-fill-palette-color="accent"
                   id="icon-0"><path
                     d="M113.408 127.003c-13.696 0-25.778-6.89-32.986-17.385L93.206 99l-18.76-2.984c-0.668-2.898-1.032-5.913-1.032-9.015 0-19.455 13.892-35.63 32.292-39.228-2.528-0.395-5.065-0.772-7.709-0.772C70.381 47.001 48 69.389 48 97.003c0 27.61 22.381 49.998 49.997 49.998 23.104 0 42.359-15.751 48.093-37.049C138.853 120.238 126.935 127.003 113.408 127.003zM66.581 99c-1.312 0-2.376-1.063-2.376-2.374 0-1.312 1.064-2.375 2.376-2.375s2.375 1.063 2.375 2.375C68.956 97.937 67.893 99 66.581 99z"
                     fill="#ff9800"
                     data-fill-palette-color="accent"
                     id="path64" /></svg>
              </g>
            </svg>
          </g>
          <g
             id="g73" />
        </svg>
      </g>
    </svg>
    <rect
       width="395.52"
       height="68.12860467278202"
       fill="none"
       stroke="none"
       visibility="hidden"
       id="rect81" />
  </g>
  <defs
     id="defs84" />
</svg>
